STARTFONT 2.1
COMMENT $Id$
COMMENT 
COMMENT Copyright (C) Centre d'Etudes de la Navigation Aťrienne
COMMENT 
COMMENT This software is free software; you can redistribute it and/or
COMMENT modify it under the terms of the GNU Lesser General Public License
COMMENT as published by the Free Software Foundation: either version 2
COMMENT of the License, or (at your option) any later version.
COMMENT 
COMMENT This software is distributed in the hope that it will be useful,
COMMENT but WITHOUT ANY WARRANTY; without even the implied warranty of
COMMENT MERCHANTABILITY or FITNESS FOR A PARTICULAR PURPOSE.  See the
COMMENT GNU Lesser General Public License for more details.
COMMENT 
COMMENT You should have received a copy of the GNU Lesser General Public License
COMMENT along with this software; if not, write to the Free Software
COMMENT Foundation, Inc., 59 Temple Place - Suite 330, Boston, MA  02111-1307, USA.
COMMENT Please refer to http://www.gnu.org/copyleft/gpl.html
COMMENT 
COMMENT to contact us:
COMMENT    email to:  pii-contact@cena.dgac.fr
COMMENT or write to: CENA, 7 avenue Edouard Belin, 31400 Toulouse, France 
COMMENT 
FONT -cena-orly label-bold-r-normal-sans-17-170-75-75-p-98-fontspecific-1
SIZE 17 75 75
FONTBOUNDINGBOX 19 19 0 -4
STARTPROPERTIES 15
FOUNDRY "CENA"
FAMILY_NAME "Orly Label"
COPYRIGHT "Copyright 1999 CENA/J.L.Vinot"
FONT_ASCENT 16
FONT_DESCENT 4
PIXEL_SIZE 17
POINT_SIZE 170
RESOLUTION_X 75
RESOLUTION_Y 75
SETWIDTH_NAME "normal"
SLANT "r"
SPACING "p"
WEIGHT_NAME "bold"
_XMBDFED_INFO "Edited with xmbdfed 4.3."
FULL_NAME "Cena-OrlyLabel-b17"
ENDPROPERTIES
CHARS 142
STARTCHAR GCIDE0
ENCODING 1
SWIDTH 508 0
DWIDTH 9 0
BBX 8 16 0 -4
BITMAP
18
18
18
FF
FF
18
18
18
18
18
FF
FF
18
18
18
18
ENDCHAR
STARTCHAR GCIDE2
ENCODING 2
SWIDTH 282 0
DWIDTH 5 0
BBX 3 5 1 -3
BITMAP
60
60
40
C0
80
ENDCHAR
STARTCHAR GCIDE3
ENCODING 3
SWIDTH 451 0
DWIDTH 8 0
BBX 6 5 1 -3
BITMAP
6C
6C
48
D8
90
ENDCHAR
STARTCHAR GCIDE4
ENCODING 4
SWIDTH 1129 0
DWIDTH 20 0
BBX 19 11 0 0
BITMAP
400000
A7FFC0
B80020
A03FC0
A00400
A07800
A00800
A0F000
B02000
AFC000
400000
ENDCHAR
STARTCHAR GCIDF5
ENCODING 5
SWIDTH 225 0
DWIDTH 4 0
BBX 2 8 1 0
BITMAP
C0
C0
C0
C0
C0
C0
C0
C0
ENDCHAR
STARTCHAR GCIDF6
ENCODING 6
SWIDTH 508 0
DWIDTH 9 0
BBX 5 2 2 9
BITMAP
70
D8
ENDCHAR
STARTCHAR GCIDF7
ENCODING 7
SWIDTH 508 0
DWIDTH 9 0
BBX 5 2 2 9
BITMAP
68
B0
ENDCHAR
STARTCHAR GCIDF9
ENCODING 8
SWIDTH 508 0
DWIDTH 9 0
BBX 5 2 2 9
BITMAP
88
70
ENDCHAR
STARTCHAR fleche haut
ENCODING 9
SWIDTH 734 0
DWIDTH 13 0
BBX 11 15 1 -3
BITMAP
0400
0E00
1F00
3F80
6EC0
CE60
8E20
0E00
0E00
0E00
0E00
0E00
0E00
0E00
0E00
ENDCHAR
STARTCHAR GCIDFA
ENCODING 10
SWIDTH 508 0
DWIDTH 9 0
BBX 2 2 3 9
BITMAP
C0
C0
ENDCHAR
STARTCHAR GCIDFB
ENCODING 11
SWIDTH 508 0
DWIDTH 9 0
BBX 4 4 2 9
BITMAP
60
90
90
60
ENDCHAR
STARTCHAR GCIDFD
ENCODING 12
SWIDTH 508 0
DWIDTH 9 0
BBX 5 2 3 9
BITMAP
78
A0
ENDCHAR
STARTCHAR fleche bas
ENCODING 13
SWIDTH 734 0
DWIDTH 13 0
BBX 11 15 1 -3
BITMAP
0E00
0E00
0E00
0E00
0E00
0E00
0E00
0E00
8E20
CE60
6EC0
3F80
1F00
0E00
0400
ENDCHAR
STARTCHAR GCIDFE
ENCODING 14
SWIDTH 508 0
DWIDTH 9 0
BBX 3 3 3 -3
BITMAP
40
80
E0
ENDCHAR
STARTCHAR GCIDFF
ENCODING 15
SWIDTH 508 0
DWIDTH 9 0
BBX 5 2 2 9
BITMAP
D8
70
ENDCHAR
STARTCHAR etoile
ENCODING 16
SWIDTH 734 0
DWIDTH 13 0
BBX 9 9 2 1
BITMAP
0800
4900
2A00
1C00
FF80
1C00
2A00
4900
0800
ENDCHAR
STARTCHAR main
ENCODING 17
SWIDTH 734 0
DWIDTH 13 0
BBX 13 12 0 0
BITMAP
0E20
3370
21E0
4FC0
5BE0
5790
5F88
5C08
3810
7FE0
E000
C000
ENDCHAR
STARTCHAR telephone
ENCODING 18
SWIDTH 734 0
DWIDTH 13 0
BBX 13 12 0 0
BITMAP
0F80
3FE0
7DF0
F8F8
FFF8
18C0
3760
7770
7770
F8F8
FFF8
FFF8
ENDCHAR
STARTCHAR avion
ENCODING 19
SWIDTH 734 0
DWIDTH 13 0
BBX 13 9 0 2
BITMAP
0200
0200
0200
0700
FDF8
68B0
4D90
0700
0880
ENDCHAR
STARTCHAR C20
ENCODING 20
SWIDTH 564 0
DWIDTH 10 0
BBX 8 2 1 4
BITMAP
FF
FF
ENDCHAR
STARTCHAR GCID30
ENCODING 21
SWIDTH 564 0
DWIDTH 10 0
BBX 8 11 1 1
BITMAP
E0
70
38
18
0C
3F
1F
0F
07
03
01
ENDCHAR
STARTCHAR GCID30
ENCODING 22
SWIDTH 564 0
DWIDTH 10 0
BBX 8 11 1 1
BITMAP
01
03
07
0F
1F
3F
0C
18
38
70
E0
ENDCHAR
STARTCHAR ouvrir
ENCODING 23
SWIDTH 734 0
DWIDTH 13 0
BBX 13 12 0 0
BITMAP
0500
0D80
1540
2520
4510
8508
8508
4510
2520
1540
0D80
0500
ENDCHAR
STARTCHAR fermer
ENCODING 24
SWIDTH 734 0
DWIDTH 13 0
BBX 13 12 0 0
BITMAP
8508
C518
A528
9548
8D88
8508
8508
8D88
9548
A528
C518
8508
ENDCHAR
STARTCHAR travers
ENCODING 25
SWIDTH 451 0
DWIDTH 8 0
BBX 6 12 1 0
BITMAP
C0
C0
C0
C0
C0
FC
FC
C0
C0
C0
C0
C0
ENDCHAR
STARTCHAR signal
ENCODING 26
SWIDTH 847 0
DWIDTH 15 0
BBX 14 12 0 -1
BITMAP
000C
0018
0030
6060
F0C0
7180
3B80
1F00
1E00
0E00
0C00
0400
ENDCHAR
STARTCHAR conflit1
ENCODING 27
SWIDTH 790 0
DWIDTH 14 0
BBX 14 13 0 0
BITMAP
0300
0780
0FC0
1FE0
3FF0
7FF8
FFFC
7FF8
3FF0
1FE0
0FC0
0780
0300
ENDCHAR
STARTCHAR conflit2
ENCODING 28
SWIDTH 734 0
DWIDTH 13 0
BBX 11 11 0 0
BITMAP
FFE0
FFE0
FFE0
FFE0
FFE0
FFE0
FFE0
FFE0
FFE0
FFE0
FFE0
ENDCHAR
STARTCHAR conflit3
ENCODING 29
SWIDTH 677 0
DWIDTH 12 0
BBX 12 12 0 0
BITMAP
0F00
3FC0
7FE0
7FE0
FFF0
FFF0
FFF0
FFF0
7FE0
7FE0
3FC0
0F00
ENDCHAR
STARTCHAR cross
ENCODING 30
SWIDTH 790 0
DWIDTH 14 0
BBX 14 12 0 -1
BITMAP
C030
E0E0
71C0
7B80
3F00
1E00
1F00
3F80
7BC0
F0E0
E038
000C
ENDCHAR
STARTCHAR GCID58
ENCODING 31
SWIDTH 564 0
DWIDTH 10 0
BBX 10 10 0 0
BITMAP
C0C0
E1C0
7380
3F00
1E00
1E00
3F00
7380
E1C0
C0C0
ENDCHAR
STARTCHAR GCID20
ENCODING 32
SWIDTH 621 0
DWIDTH 11 0
BBX 0 0 0 0
BITMAP
ENDCHAR
STARTCHAR GCID21
ENCODING 33
SWIDTH 338 0
DWIDTH 6 0
BBX 2 12 2 0
BITMAP
C0
C0
C0
C0
C0
C0
C0
C0
C0
00
C0
C0
ENDCHAR
STARTCHAR GCID22
ENCODING 34
SWIDTH 282 0
DWIDTH 5 0
BBX 3 5 1 7
BITMAP
A0
A0
A0
A0
A0
ENDCHAR
STARTCHAR GCID23
ENCODING 35
SWIDTH 734 0
DWIDTH 13 0
BBX 12 12 1 0
BITMAP
0660
0640
04C0
0CC0
7FF0
0980
1900
FFE0
3300
3200
2600
6600
ENDCHAR
STARTCHAR GCID25
ENCODING 37
SWIDTH 734 0
DWIDTH 13 0
BBX 13 12 0 0
BITMAP
7060
D840
D880
D900
D900
7200
0470
04D8
08D8
10D8
10D8
2070
ENDCHAR
STARTCHAR GCID27
ENCODING 39
SWIDTH 169 0
DWIDTH 3 0
BBX 1 5 1 7
BITMAP
80
80
80
80
80
ENDCHAR
STARTCHAR GCID28
ENCODING 40
SWIDTH 282 0
DWIDTH 5 0
BBX 3 16 1 -4
BITMAP
20
60
60
40
C0
C0
C0
C0
C0
C0
C0
C0
40
40
60
20
ENDCHAR
STARTCHAR GCID29
ENCODING 41
SWIDTH 282 0
DWIDTH 5 0
BBX 3 16 0 -4
BITMAP
80
C0
40
40
60
60
60
60
60
60
60
60
40
40
C0
80
ENDCHAR
STARTCHAR GCID2A
ENCODING 42
SWIDTH 508 0
DWIDTH 9 0
BBX 9 9 0 4
BITMAP
0800
8880
6B00
3E00
1C00
3E00
6B00
8880
0800
ENDCHAR
STARTCHAR GCID2B
ENCODING 43
SWIDTH 677 0
DWIDTH 12 0
BBX 8 8 2 0
BITMAP
18
18
18
FF
FF
18
18
18
ENDCHAR
STARTCHAR GCID2C
ENCODING 44
SWIDTH 282 0
DWIDTH 5 0
BBX 3 5 1 -3
BITMAP
60
60
40
C0
80
ENDCHAR
STARTCHAR GCID2D
ENCODING 45
SWIDTH 451 0
DWIDTH 8 0
BBX 6 2 1 3
BITMAP
FC
FC
ENDCHAR
STARTCHAR GCID2E
ENCODING 46
SWIDTH 282 0
DWIDTH 5 0
BBX 2 2 1 0
BITMAP
C0
C0
ENDCHAR
STARTCHAR GCID2F
ENCODING 47
SWIDTH 395 0
DWIDTH 7 0
BBX 7 14 0 -2
BITMAP
06
04
04
0C
08
18
10
10
30
20
60
40
40
C0
ENDCHAR
STARTCHAR GCID30
ENCODING 48
SWIDTH 621 0
DWIDTH 11 0
BBX 9 12 1 0
BITMAP
3E00
7F00
E380
C180
C980
C980
C980
C980
C180
E380
7F00
3E00
ENDCHAR
STARTCHAR GCID31
ENCODING 49
SWIDTH 564 0
DWIDTH 10 0
BBX 6 12 2 0
BITMAP
1C
3C
7C
EC
CC
0C
0C
0C
0C
0C
0C
0C
ENDCHAR
STARTCHAR GCID32
ENCODING 50
SWIDTH 621 0
DWIDTH 11 0
BBX 9 12 1 0
BITMAP
3C00
7E00
E300
C300
0300
0700
0E00
1C00
3800
7000
FF80
FF80
ENDCHAR
STARTCHAR GCID33
ENCODING 51
SWIDTH 621 0
DWIDTH 11 0
BBX 9 12 1 0
BITMAP
3E00
7F00
6300
0300
0E00
1F00
0380
0180
C180
E380
7F00
3E00
ENDCHAR
STARTCHAR GCID34
ENCODING 52
SWIDTH 621 0
DWIDTH 11 0
BBX 10 12 1 0
BITMAP
0300
0700
0F00
1B00
3300
6300
C300
FFC0
FFC0
0300
0300
0300
ENDCHAR
STARTCHAR GCID35
ENCODING 53
SWIDTH 621 0
DWIDTH 11 0
BBX 9 12 1 0
BITMAP
7F00
7F00
6000
6000
7E00
7F00
0380
0180
0180
C380
FF00
3E00
ENDCHAR
STARTCHAR GCID36
ENCODING 54
SWIDTH 621 0
DWIDTH 11 0
BBX 9 12 1 0
BITMAP
0C00
1C00
1800
3000
7E00
7F00
E380
C180
C180
E380
7F00
3E00
ENDCHAR
STARTCHAR GCID37
ENCODING 55
SWIDTH 621 0
DWIDTH 11 0
BBX 9 12 1 0
BITMAP
FF80
FF80
0380
0700
0600
0C00
1800
1800
3000
7000
6000
6000
ENDCHAR
STARTCHAR char56
ENCODING 56
SWIDTH 621 0
DWIDTH 11 0
BBX 9 12 1 0
BITMAP
1E00
3F00
6300
6300
7600
3E00
6F00
C380
C180
E180
7F00
3E00
ENDCHAR
STARTCHAR GCID39
ENCODING 57
SWIDTH 621 0
DWIDTH 11 0
BBX 9 12 1 0
BITMAP
3E00
7F00
E380
C180
C180
E380
7F00
3F00
0600
0C00
1C00
1800
ENDCHAR
STARTCHAR GCID3A
ENCODING 58
SWIDTH 338 0
DWIDTH 6 0
BBX 2 8 2 0
BITMAP
C0
C0
00
00
00
00
C0
C0
ENDCHAR
STARTCHAR GCID3B
ENCODING 59
SWIDTH 338 0
DWIDTH 6 0
BBX 3 11 1 -3
BITMAP
60
60
00
00
00
00
60
60
40
C0
80
ENDCHAR
STARTCHAR char60
ENCODING 60
SWIDTH 451 0
DWIDTH 8 0
BBX 6 9 1 0
BITMAP
0C
18
30
60
C0
60
30
18
0C
ENDCHAR
STARTCHAR char61
ENCODING 61
SWIDTH 564 0
DWIDTH 10 0
BBX 7 5 2 2
BITMAP
FE
FE
00
FE
FE
ENDCHAR
STARTCHAR char62
ENCODING 62
SWIDTH 508 0
DWIDTH 9 0
BBX 6 9 2 0
BITMAP
C0
60
30
18
0C
18
30
60
C0
ENDCHAR
STARTCHAR char63
ENCODING 63
SWIDTH 508 0
DWIDTH 9 0
BBX 7 12 1 0
BITMAP
3C
7E
C6
06
06
0C
18
30
30
00
30
30
ENDCHAR
STARTCHAR char64
ENCODING 64
SWIDTH 960 0
DWIDTH 17 0
BBX 16 15 1 -3
BITMAP
07F0
1C1C
3006
6006
61F3
C7F3
C623
CC63
CC63
CC66
CFFE
6738
6000
3810
0FE0
ENDCHAR
STARTCHAR GCID41
ENCODING 65
SWIDTH 677 0
DWIDTH 12 0
BBX 12 12 0 0
BITMAP
0400
0600
0E00
0F00
1B00
1980
3180
3FC0
7FC0
6060
C060
C030
ENDCHAR
STARTCHAR GCID42
ENCODING 66
SWIDTH 564 0
DWIDTH 10 0
BBX 8 12 1 0
BITMAP
FC
FE
C6
C6
FC
FE
C7
C3
C3
C7
FE
FC
ENDCHAR
STARTCHAR GCID43
ENCODING 67
SWIDTH 677 0
DWIDTH 12 0
BBX 10 12 1 0
BITMAP
0F80
3FC0
70C0
6000
C000
C000
C000
C000
E000
70C0
3FC0
1F80
ENDCHAR
STARTCHAR GCID44
ENCODING 68
SWIDTH 677 0
DWIDTH 12 0
BBX 10 12 1 0
BITMAP
FC00
FF00
C380
C1C0
C0C0
C0C0
C0C0
C0C0
C1C0
C380
FF00
FC00
ENDCHAR
STARTCHAR GCID45
ENCODING 69
SWIDTH 508 0
DWIDTH 9 0
BBX 7 12 1 0
BITMAP
FE
FE
C0
C0
FE
FE
C0
C0
C0
C0
FE
FE
ENDCHAR
STARTCHAR GCID46
ENCODING 70
SWIDTH 508 0
DWIDTH 9 0
BBX 7 12 1 0
BITMAP
FE
FE
C0
C0
FE
FE
C0
C0
C0
C0
C0
C0
ENDCHAR
STARTCHAR GCID47
ENCODING 71
SWIDTH 790 0
DWIDTH 14 0
BBX 12 12 1 0
BITMAP
0F80
3FE0
7060
6000
C000
C3F0
C3F0
C030
6030
7060
3FE0
0F80
ENDCHAR
STARTCHAR GCID48
ENCODING 72
SWIDTH 734 0
DWIDTH 13 0
BBX 10 12 1 0
BITMAP
C0C0
C0C0
C0C0
C0C0
FFC0
FFC0
C0C0
C0C0
C0C0
C0C0
C0C0
C0C0
ENDCHAR
STARTCHAR GCID49
ENCODING 73
SWIDTH 338 0
DWIDTH 6 0
BBX 2 12 2 0
BITMAP
C0
C0
C0
C0
C0
C0
C0
C0
C0
C0
C0
C0
ENDCHAR
STARTCHAR char74
ENCODING 74
SWIDTH 451 0
DWIDTH 8 0
BBX 6 12 1 0
BITMAP
0C
0C
0C
0C
0C
0C
0C
0C
8C
CC
FC
78
ENDCHAR
STARTCHAR GCID4B
ENCODING 75
SWIDTH 621 0
DWIDTH 11 0
BBX 9 12 1 0
BITMAP
C300
C700
CC00
DC00
F000
F000
F800
DC00
CE00
C700
C380
C180
ENDCHAR
STARTCHAR GCID4C
ENCODING 76
SWIDTH 451 0
DWIDTH 8 0
BBX 6 12 1 0
BITMAP
C0
C0
C0
C0
C0
C0
C0
C0
C0
C0
FC
FC
ENDCHAR
STARTCHAR GCID4D
ENCODING 77
SWIDTH 790 0
DWIDTH 14 0
BBX 12 12 1 0
BITMAP
C030
C030
E070
E070
F0F0
F0B0
D9B0
D9B0
CF30
CF30
C630
C630
ENDCHAR
STARTCHAR GCID4E
ENCODING 78
SWIDTH 790 0
DWIDTH 14 0
BBX 11 12 1 0
BITMAP
8060
C060
E060
F060
D860
CC60
C660
C360
C1E0
C0E0
C060
C020
ENDCHAR
STARTCHAR GCID4F
ENCODING 79
SWIDTH 847 0
DWIDTH 15 0
BBX 13 12 1 0
BITMAP
0F80
3FE0
7070
6030
C018
C018
C018
C018
6030
7070
3FE0
0F80
ENDCHAR
STARTCHAR GCID50
ENCODING 80
SWIDTH 508 0
DWIDTH 9 0
BBX 8 12 1 0
BITMAP
FC
FE
C7
C3
C3
C7
FE
FC
C0
C0
C0
C0
ENDCHAR
STARTCHAR GCID51
ENCODING 81
SWIDTH 847 0
DWIDTH 15 0
BBX 14 13 1 -1
BITMAP
0F80
3FE0
7070
6030
C018
C018
C318
C398
61F0
70F0
3FF0
0FB8
001C
ENDCHAR
STARTCHAR char82
ENCODING 82
SWIDTH 564 0
DWIDTH 10 0
BBX 9 12 1 0
BITMAP
FC00
FE00
C700
C300
C300
C700
FE00
F800
DC00
CE00
C700
C380
ENDCHAR
STARTCHAR char83
ENCODING 83
SWIDTH 564 0
DWIDTH 10 0
BBX 9 12 0 0
BITMAP
1E00
3F00
6100
6000
7800
3E00
0F00
0380
0180
E180
7F00
3E00
ENDCHAR
STARTCHAR GCID54
ENCODING 84
SWIDTH 508 0
DWIDTH 9 0
BBX 8 12 0 0
BITMAP
FF
FF
18
18
18
18
18
18
18
18
18
18
ENDCHAR
STARTCHAR GCID55
ENCODING 85
SWIDTH 734 0
DWIDTH 13 0
BBX 10 12 1 0
BITMAP
C0C0
C0C0
C0C0
C0C0
C0C0
C0C0
C0C0
C0C0
C0C0
E1C0
7F80
3F00
ENDCHAR
STARTCHAR GCID56
ENCODING 86
SWIDTH 621 0
DWIDTH 11 0
BBX 11 12 0 0
BITMAP
C060
C060
60C0
60C0
3180
3180
3300
1B00
1E00
0E00
0C00
0400
ENDCHAR
STARTCHAR GCID57
ENCODING 87
SWIDTH 903 0
DWIDTH 16 0
BBX 15 12 0 0
BITMAP
C006
C106
610C
638C
638C
3398
36D8
36D8
1EF0
1C70
1C70
0820
ENDCHAR
STARTCHAR GCID58
ENCODING 88
SWIDTH 621 0
DWIDTH 11 0
BBX 10 12 0 0
BITMAP
E1C0
6180
3300
3F00
1E00
0C00
1E00
3F00
3300
6180
E1C0
C0C0
ENDCHAR
STARTCHAR GCID59
ENCODING 89
SWIDTH 621 0
DWIDTH 11 0
BBX 10 12 0 0
BITMAP
C0C0
C0C0
6180
7380
3300
1E00
1E00
0C00
0C00
0C00
0C00
0C00
ENDCHAR
STARTCHAR GCID5A
ENCODING 90
SWIDTH 564 0
DWIDTH 10 0
BBX 9 12 0 0
BITMAP
7F80
7F80
0300
0600
0E00
0C00
1800
3000
3000
6000
FF80
FF80
ENDCHAR
STARTCHAR GCID5B
ENCODING 91
SWIDTH 282 0
DWIDTH 5 0
BBX 3 16 2 -4
BITMAP
E0
C0
C0
C0
C0
C0
C0
C0
C0
C0
C0
C0
C0
C0
C0
E0
ENDCHAR
STARTCHAR GCID5C
ENCODING 92
SWIDTH 395 0
DWIDTH 7 0
BBX 7 14 0 -2
BITMAP
C0
40
40
60
20
30
10
10
18
08
0C
04
04
06
ENDCHAR
STARTCHAR GCID5D
ENCODING 93
SWIDTH 282 0
DWIDTH 5 0
BBX 3 16 0 -4
BITMAP
E0
60
60
60
60
60
60
60
60
60
60
60
60
60
60
E0
ENDCHAR
STARTCHAR GCID5F
ENCODING 95
SWIDTH 508 0
DWIDTH 9 0
BBX 9 1 0 -4
BITMAP
FF80
ENDCHAR
STARTCHAR GCID61
ENCODING 97
SWIDTH 564 0
DWIDTH 10 0
BBX 8 8 1 0
BITMAP
3B
7F
E7
C3
C3
E7
7F
3B
ENDCHAR
STARTCHAR GCID62
ENCODING 98
SWIDTH 564 0
DWIDTH 10 0
BBX 8 12 1 0
BITMAP
C0
C0
C0
C0
DC
FE
E7
C3
C3
E7
FE
DC
ENDCHAR
STARTCHAR GCID63
ENCODING 99
SWIDTH 508 0
DWIDTH 9 0
BBX 7 8 1 0
BITMAP
3C
7E
E4
C0
C0
E4
7E
3C
ENDCHAR
STARTCHAR GCID64
ENCODING 100
SWIDTH 564 0
DWIDTH 10 0
BBX 8 12 1 0
BITMAP
03
03
03
03
3B
7F
E7
C3
C3
E7
7F
3B
ENDCHAR
STARTCHAR GCID65
ENCODING 101
SWIDTH 508 0
DWIDTH 9 0
BBX 7 8 1 0
BITMAP
3C
7E
C6
DE
F8
E0
7E
3C
ENDCHAR
STARTCHAR GCID66
ENCODING 102
SWIDTH 395 0
DWIDTH 7 0
BBX 6 12 0 0
BITMAP
1C
3C
30
30
7C
FC
30
30
30
30
30
30
ENDCHAR
STARTCHAR GCID67
ENCODING 103
SWIDTH 564 0
DWIDTH 10 0
BBX 8 12 1 -4
BITMAP
3B
7F
E7
C3
C3
E7
7F
3B
03
07
7E
3C
ENDCHAR
STARTCHAR GCID68
ENCODING 104
SWIDTH 564 0
DWIDTH 10 0
BBX 8 12 1 0
BITMAP
C0
C0
C0
C0
DE
FF
E3
C3
C3
C3
C3
C3
ENDCHAR
STARTCHAR GCID69
ENCODING 105
SWIDTH 338 0
DWIDTH 6 0
BBX 2 12 2 0
BITMAP
C0
C0
00
00
C0
C0
C0
C0
C0
C0
C0
C0
ENDCHAR
STARTCHAR GCID6A
ENCODING 106
SWIDTH 338 0
DWIDTH 6 0
BBX 4 16 0 -4
BITMAP
30
30
00
00
30
30
30
30
30
30
30
30
30
30
F0
E0
ENDCHAR
STARTCHAR GCID6B
ENCODING 107
SWIDTH 508 0
DWIDTH 9 0
BBX 8 12 1 0
BITMAP
C0
C0
C0
C0
C6
CC
D8
F8
FC
CE
C7
C3
ENDCHAR
STARTCHAR GCID6C
ENCODING 108
SWIDTH 338 0
DWIDTH 6 0
BBX 4 12 1 0
BITMAP
C0
C0
C0
C0
C0
C0
C0
C0
C0
C0
F0
70
ENDCHAR
STARTCHAR GCID6D
ENCODING 109
SWIDTH 790 0
DWIDTH 14 0
BBX 12 8 1 0
BITMAP
DCE0
FFF0
E730
C630
C630
C630
C630
C630
ENDCHAR
STARTCHAR GCID6E
ENCODING 110
SWIDTH 508 0
DWIDTH 9 0
BBX 7 8 1 0
BITMAP
DC
FE
E6
C6
C6
C6
C6
C6
ENDCHAR
STARTCHAR GCID6F
ENCODING 111
SWIDTH 564 0
DWIDTH 10 0
BBX 8 8 1 0
BITMAP
3C
7E
C7
C3
C3
E3
7E
3C
ENDCHAR
STARTCHAR GCID70
ENCODING 112
SWIDTH 564 0
DWIDTH 10 0
BBX 8 12 1 -4
BITMAP
DC
FE
E7
C3
C3
E7
FE
DC
C0
C0
C0
C0
ENDCHAR
STARTCHAR GCID71
ENCODING 113
SWIDTH 564 0
DWIDTH 10 0
BBX 8 12 1 -4
BITMAP
3B
7F
E7
C3
C3
E7
7F
3B
03
03
03
03
ENDCHAR
STARTCHAR GCID72
ENCODING 114
SWIDTH 338 0
DWIDTH 6 0
BBX 5 8 1 0
BITMAP
D8
F8
E0
C0
C0
C0
C0
C0
ENDCHAR
STARTCHAR GCID73
ENCODING 115
SWIDTH 451 0
DWIDTH 8 0
BBX 6 8 1 0
BITMAP
78
D8
C0
F8
7C
0C
DC
F8
ENDCHAR
STARTCHAR GCID74
ENCODING 116
SWIDTH 395 0
DWIDTH 7 0
BBX 6 11 0 0
BITMAP
10
30
30
7C
FC
30
30
30
30
3C
1C
ENDCHAR
STARTCHAR GCID75
ENCODING 117
SWIDTH 508 0
DWIDTH 9 0
BBX 7 8 1 0
BITMAP
C6
C6
C6
C6
C6
CE
FE
76
ENDCHAR
STARTCHAR CENA76
ENCODING 118
SWIDTH 508 0
DWIDTH 9 0
BBX 9 8 0 0
BITMAP
C180
6300
6300
3600
3600
1C00
1C00
0800
ENDCHAR
STARTCHAR GCID77
ENCODING 119
SWIDTH 621 0
DWIDTH 11 0
BBX 11 8 0 0
BITMAP
C060
C460
64C0
6EC0
6EC0
3B80
3B80
1100
ENDCHAR
STARTCHAR CENA78
ENCODING 120
SWIDTH 508 0
DWIDTH 9 0
BBX 9 9 0 0
BITMAP
6300
6300
3600
3E00
1C00
3E00
7700
6300
C180
ENDCHAR
STARTCHAR CENA79
ENCODING 121
SWIDTH 508 0
DWIDTH 9 0
BBX 8 11 1 -3
BITMAP
C3
C3
66
66
36
3C
1C
18
38
70
60
ENDCHAR
STARTCHAR GCID7A
ENCODING 122
SWIDTH 451 0
DWIDTH 8 0
BBX 7 8 0 0
BITMAP
7E
7E
0C
18
30
60
FE
FE
ENDCHAR
STARTCHAR GCIDCB
ENCODING 192
SWIDTH 621 0
DWIDTH 11 0
BBX 12 15 0 0
BITMAP
1800
0400
0000
0400
0600
0600
0F00
0B00
1980
1180
3FC0
3FC0
6060
6060
C030
ENDCHAR
STARTCHAR GCIDE5
ENCODING 194
SWIDTH 621 0
DWIDTH 11 0
BBX 12 15 0 0
BITMAP
0E00
1B00
0000
0400
0600
0600
0F00
0B00
1980
1180
3FC0
3FC0
6060
6060
C030
ENDCHAR
STARTCHAR GCID82
ENCODING 199
SWIDTH 677 0
DWIDTH 12 0
BBX 10 15 1 -3
BITMAP
0F80
3FC0
7040
6000
C000
C000
C000
C000
6000
70C0
3FC0
0F80
0200
0E00
1C00
ENDCHAR
STARTCHAR GCIDE9
ENCODING 200
SWIDTH 508 0
DWIDTH 9 0
BBX 7 15 1 0
BITMAP
30
18
00
FE
FE
C0
C0
FE
FE
C0
C0
C0
C0
FE
FE
ENDCHAR
STARTCHAR GCID83
ENCODING 201
SWIDTH 508 0
DWIDTH 9 0
BBX 7 15 1 0
BITMAP
0C
18
00
FE
FE
C0
C0
FE
FE
C0
C0
C0
C0
FE
FE
ENDCHAR
STARTCHAR GCIDE6
ENCODING 202
SWIDTH 508 0
DWIDTH 9 0
BBX 7 15 1 0
BITMAP
1C
36
00
FE
FE
C0
C0
FE
FE
C0
C0
C0
C0
FE
FE
ENDCHAR
STARTCHAR GCIDE8
ENCODING 203
SWIDTH 508 0
DWIDTH 9 0
BBX 7 15 1 0
BITMAP
36
36
00
FE
FE
C0
C0
FE
FE
C0
C0
C0
C0
FE
FE
ENDCHAR
STARTCHAR GCIDEB
ENCODING 206
SWIDTH 282 0
DWIDTH 5 0
BBX 5 15 0 0
BITMAP
70
D8
00
60
60
60
60
60
60
60
60
60
60
60
60
ENDCHAR
STARTCHAR GCIDEC
ENCODING 207
SWIDTH 282 0
DWIDTH 5 0
BBX 5 15 0 0
BITMAP
D8
D8
00
60
60
60
60
60
60
60
60
60
60
60
60
ENDCHAR
STARTCHAR GCIDEF
ENCODING 212
SWIDTH 847 0
DWIDTH 15 0
BBX 13 15 1 0
BITMAP
0700
0D80
0000
0F80
3FE0
7070
6030
C018
C018
C018
C018
6030
7070
3FE0
0F80
ENDCHAR
STARTCHAR GCIDF4
ENCODING 217
SWIDTH 734 0
DWIDTH 13 0
BBX 10 15 1 0
BITMAP
1800
0C00
0000
C0C0
C0C0
C0C0
C0C0
C0C0
C0C0
C0C0
C0C0
C0C0
E1C0
7F80
3F00
ENDCHAR
STARTCHAR GCIDF3
ENCODING 219
SWIDTH 734 0
DWIDTH 13 0
BBX 10 15 1 0
BITMAP
0E00
1B00
0000
C0C0
C0C0
C0C0
C0C0
C0C0
C0C0
C0C0
C0C0
C0C0
E1C0
7F80
3F00
ENDCHAR
STARTCHAR GCID88
ENCODING 224
SWIDTH 564 0
DWIDTH 10 0
BBX 8 11 1 0
BITMAP
30
18
00
3B
7F
E7
C3
C3
E7
7F
3B
ENDCHAR
STARTCHAR GCID89
ENCODING 226
SWIDTH 564 0
DWIDTH 10 0
BBX 8 11 1 0
BITMAP
1C
36
00
3B
7F
E7
C3
C3
E7
7F
3B
ENDCHAR
STARTCHAR GCID63
ENCODING 231
SWIDTH 508 0
DWIDTH 9 0
BBX 7 11 1 -3
BITMAP
3C
7E
E4
C0
C0
E4
7E
3C
08
18
30
ENDCHAR
STARTCHAR GCID65
ENCODING 232
SWIDTH 508 0
DWIDTH 9 0
BBX 7 11 1 0
BITMAP
60
30
00
3C
7E
C6
DE
F8
E0
7E
3C
ENDCHAR
STARTCHAR GCID65
ENCODING 233
SWIDTH 508 0
DWIDTH 9 0
BBX 7 11 1 0
BITMAP
0C
18
00
3C
7E
C6
DE
F8
E0
7E
3C
ENDCHAR
STARTCHAR GCID65
ENCODING 234
SWIDTH 508 0
DWIDTH 9 0
BBX 7 11 1 0
BITMAP
38
6C
00
3C
7E
C6
DE
F8
E0
7E
3C
ENDCHAR
STARTCHAR GCID65
ENCODING 235
SWIDTH 508 0
DWIDTH 9 0
BBX 7 11 1 0
BITMAP
6C
6C
00
3C
7E
C6
DE
F8
E0
7E
3C
ENDCHAR
STARTCHAR GCID94
ENCODING 238
SWIDTH 338 0
DWIDTH 6 0
BBX 5 11 1 0
BITMAP
70
D8
00
60
60
60
60
60
60
60
60
ENDCHAR
STARTCHAR GCID95
ENCODING 239
SWIDTH 338 0
DWIDTH 6 0
BBX 5 11 1 0
BITMAP
D8
D8
00
60
60
60
60
60
60
60
60
ENDCHAR
STARTCHAR GCID99
ENCODING 244
SWIDTH 564 0
DWIDTH 10 0
BBX 8 11 1 0
BITMAP
1C
36
00
3C
7E
C7
C3
C3
E3
7E
3C
ENDCHAR
STARTCHAR GCID9D
ENCODING 249
SWIDTH 508 0
DWIDTH 9 0
BBX 7 11 1 0
BITMAP
30
18
00
C6
C6
C6
C6
C6
CE
FE
76
ENDCHAR
STARTCHAR GCID9D
ENCODING 251
SWIDTH 508 0
DWIDTH 9 0
BBX 7 11 1 0
BITMAP
38
6C
00
C6
C6
C6
C6
C6
CE
FE
76
ENDCHAR
ENDFONT
